<svg width="152" height="152" viewBox="0 0 152 152" fill="none" xmlns="http://www.w3.org/2000/svg">
<path d="M33.7822 28.7851C40.2848 22.9602 47.9225 18.5441 56.2148 15.8145C58.5859 18.7849 61.596 21.1828 65.0214 22.8297C68.4468 24.4766 72.1994 25.3302 76.0002 25.3271C79.8009 25.3302 83.5535 24.4766 86.9789 22.8297C90.4043 21.1828 93.4144 18.7849 95.7855 15.8145C104.078 18.5441 111.716 22.9602 118.218 28.7851C116.834 32.322 116.265 36.1251 116.552 39.9121C116.84 43.6991 117.976 47.3728 119.877 50.6605C121.775 53.9544 124.391 56.7781 127.53 58.9218C130.669 61.0654 134.251 62.4738 138.01 63.0421C139.787 71.5852 139.787 80.4024 138.01 88.9455C130.663 90.0728 123.886 94.3921 119.877 101.327C117.975 104.616 116.838 108.29 116.551 112.079C116.263 115.867 116.833 119.671 118.218 123.209C111.715 129.031 104.077 133.445 95.7855 136.173C93.4138 133.204 90.4034 130.807 86.978 129.161C83.5526 127.516 79.8004 126.663 76.0002 126.667C72.1994 126.664 68.4468 127.517 65.0214 129.164C61.596 130.811 58.5859 133.209 56.2148 136.179C47.923 133.452 40.2853 129.038 33.7822 123.215C35.1669 119.677 35.7369 115.873 35.4496 112.085C35.1623 108.297 34.0252 104.622 32.1228 101.333C30.2247 98.0407 27.6087 95.2182 24.4695 93.0757C21.3303 90.9331 17.7485 89.5257 13.9905 88.9581C12.2128 80.413 12.2128 71.5935 13.9905 63.0485C17.7491 62.4801 21.3312 61.0718 24.4705 58.9281C27.6097 56.7845 30.2254 53.9607 32.1228 50.6668C34.0243 47.3791 35.1608 43.7055 35.4481 39.9184C35.7353 36.1314 35.1659 32.3283 33.7822 28.7915V28.7851ZM85.5002 92.4478C87.6784 91.2093 89.5902 89.5522 91.1254 87.5719C92.6607 85.5916 93.789 83.3271 94.4455 80.9089C95.1021 78.4908 95.2738 75.9666 94.9508 73.4818C94.6278 70.997 93.8166 68.6006 92.5637 66.4306C91.3108 64.2606 89.641 62.3598 87.6506 60.8378C85.6601 59.3157 83.3882 58.2024 80.9657 57.5619C78.5433 56.9214 76.018 56.7665 73.5354 57.1059C71.0528 57.4454 68.6618 58.2725 66.5002 59.5398C62.1718 62.0773 59.0229 66.2237 57.7404 71.0743C56.458 75.925 57.1462 81.0859 59.6549 85.431C62.1636 89.776 66.2891 92.9524 71.1311 94.267C75.9731 95.5816 81.1385 94.9276 85.5002 92.4478Z" fill="#FF8A00"/>
</svg>
